<?xml version="1.0" encoding="utf-8"?>
<!-- Generator: Adobe Illustrator 21.0.2, SVG Export Plug-In . SVG Version: 6.00 Build 0)  -->
<svg width="244px" height="188px" version="1.1" id="Calque_1" xmlns="http://www.w3.org/2000/svg" xmlns:xlink="http://www.w3.org/1999/xlink" x="0px" y="0px"
	 viewBox="0 0 244 188" style="enable-background:new 0 0 244 188;" xml:space="preserve">
<style type="text/css">
	.st0{fill:#FF5722;stroke:#000000;stroke-width:0.5;stroke-miterlimit:10;}
	.st1{fill:#FF5722;}
</style>
<g>
	<path class="st0" d="M100.6,64.9c0.4-0.7,0.7-1.5,1-2.3c0.4-1.4,0.5-2.8,0.5-4.3c0-1.1-0.2-2.1-0.6-3.1c-0.5-1.6-1.3-2.9-2.7-4
		c-0.8-0.6-1.6-1.2-2.6-1.5c-0.5-0.1-1.1-0.4-1.6-0.8c-0.3-0.5-0.8-1-1.3-1.6c0-0.1-0.2-0.3-0.2-0.4c-0.1-0.4-0.5-1-0.6-1.5
		c-0.3-1-0.2-2,0.3-3.1c0.3-1,2.3-2.8,4.4-2.5c0.3,0,0.5,0.3,0.7,0.3l1,1.1c0.4,0.4,0.8,2.2,1,2.3c0.8,0.1,1.1,0.1,1.7-0.5l-0.5-1.6
		c0,0-0.1,0-0.1-0.1c-0.3-0.6-0.7-1.1-1-1.4c-3.2-3.3-6-3.2-8.7-0.5c-0.3,0.3-0.5,0.5-0.7,0.7c-0.7,0.5-1.2,2.5-1.2,2.9
		c-0.2,1.5-1,3.9,2.7,7.2c0.3,0.3,1,0.5,1.3,0.8s0.7,0.4,1,0.7c0.8,0.7,1.6,1.2,2.3,1.9c0.3,0.2,0.5,0.5,0.7,0.8
		c0.6,0.8,0.8,1.7,1.2,2.7c0.2,0.6,0.2,1.3,0.2,2c-0.1,1.2-0.5,2.3-0.7,3.4c-0.3,1.2-0.8,2.3-1.5,3.3c-0.3,0.4-0.6,0.7-1,1.1
		c-0.3,0.3-0.5,0.3-1,0.3c-0.5-0.1-1-0.3-1.5-0.6c-1.5-1.1-2.5-4.2-2.3-6.7c0-0.2,0.2-0.3,0.3-0.5c0.2-0.5,0.1-0.7-0.4-1
		c-0.1,0-0.3-0.1-0.5,0c-0.7,0-1.4,0.1-2.2,0.3c-0.1,0-0.4,0.1-0.6,0.3c-0.1,0.1-0.1,0.5,0,0.7c0.1,0,0.3,0.1,0.5,0.2
		c0.1,0.1,0.4,0.2,0.6,0.2c0,0.2,0,0.3,0,0.4c-0.1,0.5-0.1,0.9,0,1.4c0,0.3,0,0.8,0,1.3c0,0.1,0,0.3,0,0.4c0.1,1.3,0.8,2.9,1.9,3.7
		c2.3,1.9,5.3,2,7.4,0.9C98.8,67.2,99.8,66.1,100.6,64.9z"/>
	<path class="st0" d="M104.2,67.1c1,0.4,2.2,0.6,3.3,0.6c1.1,0,2.3-0.1,3.5-0.1c0.7,0,1.3,0,2-0.1c0.3,0,0.7,0,1,0
		c1.1,0.1,2.2,0.1,3.3,0c0.3,0,0.4-0.1,0.6-0.3c0.3-0.3,0.5-0.8,0.6-1.2l0.1-1.6c0-0.4-0.1-0.7-0.4-1c-0.1,0-0.3-0.1-0.4-0.2
		c-0.3-0.1-0.5,0-0.7,0.3l-0.3,1.1c-0.1,0.3-0.3,0.5-0.6,0.6c-0.3,0-0.6,0.1-0.9,0.1l-1.7,0.1c-0.8,0-1.8,0-2.7,0
		c-0.4,0-0.8-0.1-1.3-0.1c-0.3-1-0.4-2-0.3-3c0-0.6,0.1-1.3,0-1.9c0-2.2,0.2-4.4,0.4-6.6c0-0.3,0.1-0.5,0.3-0.7c0.4,0,1,0.1,1.4,0.2
		c0.5,0.1,1,0.1,1.5,0.1c0.1,0.2,0.1,0.2,0.1,0.3c0.1,1,0.7,1.3,1.3,1.7c0.4,0.3,0.8,0,0.8-0.5c0-0.2,0-0.4,0-0.7c0-0.7,0-1.3-0.1-2
		c0-0.3-0.2-0.7-0.3-1c-0.1-0.4-0.4-0.5-0.8-0.7c-0.5-0.2-0.8,0-1,0.7v0.2c-0.1,0.2-0.2,0.4-0.3,0.4c-0.8,0.1-1.5,0.3-2.3,0.1
		c-0.3,0-0.4-0.2-0.4-0.7v-0.5c0.1-1.8,0.2-3.6,0.3-5.3c0-2.1,0.1-4.3-0.3-6.4c0,0,0,0,0-0.1c0.2-0.3,0.5-0.1,0.8,0l5.2,0.1
		c0,0,0,0,0.1,0c0.1,0.3,0.1,0.7,0,1c-0.3,0.8-0.1,1.4,0.5,2c0.1,0.1,0.3,0.3,0.3,0.4c0.6,0.7,1.1,0.7,1.4,0c0-0.1,0-0.2,0.1-0.3
		c0.1-0.8,0.2-1.7,0.3-2.6c0-0.1,0-0.3,0-0.5c0-0.5-0.3-0.9-0.7-1c-0.4,0-0.8-0.1-1.2-0.3c-0.3,0-0.6-0.1-1-0.1l-6-0.1
		c-0.7-0.1-1.5,0-2.2,0c-0.4,0.1-0.7,0.1-1.1,0.1c-0.7,0.1-1.2,0.3-1.9,0.3c-0.3,0.1-0.4,0.3-0.5,0.6c0,0.5,0,1,0.2,1.4
		c0.1,0.3,0.3,0.3,0.5,0.3c0.3,0,0.4,0,0.5-0.4c0-0.1,0.1-0.3,0.2-0.5c0-0.1,0.3-0.3,0.5-0.1c0.1,0,0.3,0.2,0.3,0.3
		c0,0.4-0.1,0.9-0.1,1.3c0.1,1,0,1.9-0.1,2.9c-0.1,2.2-0.3,4.4-0.3,6.6c0,1.3,0,2.5-0.1,3.8c-0.3,3.4-0.4,6.7-0.2,9.9v0.8
		c0,0.3,0.3,0.5,0.1,0.8c-0.3,0.1-0.6,0.1-1,0h-1c-0.1,0-0.3,0.1-0.3,0.2c0,0.2,0,0.4,0.1,0.6C103.9,66.9,104,67,104.2,67.1z"/>
	<path class="st0" d="M136,64.3c0-0.4-0.1-0.7-0.4-1c-0.1,0-0.3-0.1-0.4-0.2c-0.3-0.1-0.5,0-0.7,0.3l-0.3,1.1
		c-0.1,0.3-0.3,0.5-0.6,0.6c-0.3,0-0.6,0.1-0.9,0.1l-1.7,0.1c-0.8,0-1.8,0-2.7,0c-0.4,0-0.8-0.1-1.3-0.1c-0.3-1-0.4-2-0.3-3
		c0-0.6,0.1-1.3,0-1.9c0-2.2,0.2-4.4,0.4-6.6c0-0.3,0.1-0.5,0.3-0.7c0.4,0,1,0.1,1.4,0.2c0.5,0.1,1,0.1,1.5,0.1
		c0.1,0.2,0.1,0.2,0.1,0.3c0.1,1,0.7,1.3,1.3,1.7c0.4,0.3,0.8,0,0.8-0.5c0-0.2,0-0.4,0-0.7c0-0.7,0-1.3-0.1-2c0-0.3-0.2-0.7-0.3-1
		c-0.1-0.4-0.4-0.5-0.8-0.7c-0.5-0.2-0.8,0-1,0.7v0.2c-0.1,0.2-0.2,0.4-0.3,0.4c-0.8,0.1-1.5,0.3-2.3,0.1c-0.3,0-0.4-0.2-0.4-0.7
		v-0.4c0.1-1.8,0.2-3.6,0.3-5.3c0-2.1,0.1-4.3-0.3-6.4c0,0,0,0,0-0.1c0.2-0.3,0.5-0.1,0.8,0l5.2,0.1c0,0,0,0,0.1,0
		c0.1,0.3,0.1,0.7,0,1c-0.3,0.8-0.1,1.4,0.5,2c0.1,0.1,0.3,0.3,0.3,0.4c0.6,0.7,1.1,0.7,1.4,0c0-0.1,0-0.2,0.1-0.3
		c0.1-0.8,0.2-1.7,0.3-2.6c0-0.1,0-0.3,0-0.5c0-0.5-0.3-0.9-0.7-1c-0.4,0-0.8-0.1-1.2-0.3c-0.3,0-0.6-0.1-1-0.1l-6-0.1
		c-0.7-0.1-1.5,0-2.2,0c-0.4,0.1-0.7,0.1-1.1,0.1c-0.7,0.1-1.2,0.3-1.9,0.3c-0.3,0.1-0.4,0.3-0.5,0.6c0,0.5,0,1,0.2,1.4
		c0.1,0.3,0.3,0.3,0.5,0.3s0.4,0,0.5-0.4c0-0.1,0.1-0.3,0.2-0.5c0-0.1,0.3-0.3,0.5-0.1c0.1,0,0.3,0.2,0.3,0.3c0,0.4-0.1,0.9-0.1,1.3
		c0.1,1,0,1.9-0.1,2.9c-0.1,2.2-0.3,4.4-0.3,6.6c0,1.3,0,2.5-0.1,3.8c-0.3,3.4-0.4,6.7-0.2,9.9v0.8c0,0.3,0.3,0.5,0.1,0.8
		c-0.3,0.1-0.6,0.1-1,0h-1c-0.1,0-0.3,0.1-0.3,0.2c0,0.2,0,0.4,0.1,0.6c0.2,0.1,0.3,0.2,0.5,0.3c1,0.4,2.2,0.6,3.3,0.6
		c1.1,0,2.3-0.1,3.5-0.1c0.7,0,1.3,0,2-0.1c0.3,0,0.7,0,1,0c1.1,0.1,2.2,0.1,3.3,0c0.3,0,0.4-0.1,0.6-0.3c0.3-0.3,0.5-0.8,0.6-1.2
		L136,64.3z"/>
	<path class="st0" d="M137.5,66.3c1,0.4,1.9,0.8,2.9,0.7c0.5-0.1,3.4-0.3,3.7-1c-0.3-0.4-0.7-0.5-1.1-0.5c-0.8-0.2-0.8-0.4-1-1.1
		c-0.1-0.7-0.1-1.5-0.1-2.2c0-0.3,0-0.8,0-1.1c0.1-1,0.3-5.9,0.3-6.7c0-0.4,0-0.9,0.3-1.3c0.8-0.3,1.4-0.6,2.2-0.9
		c0.3-0.1,0.7,0,1,0.2c0.8,0.4,1.4,1,1.8,1.7c1,1.3,1.4,2.9,1.8,4.5c0.1,0.1,0.1,0.3,0.1,0.4c0,1.9,0.1,3.7,0.2,5.6
		c0.1,0.3,0,0.7,0,1.1c-0.1,0.3-0.4,0.3-0.7,0.3c-0.1,0-0.4,0-0.7,0.1c-0.1,0-0.2,0.2-0.2,0.3c0,0.1,0,0.3,0.2,0.3
		c0.1,0.1,0.3,0,0.4,0c0.5,0.1,5.2,0.5,5.7,0.5c0.3,0,0.4,0,0.5-0.1c0.2-0.1,0.4-0.3,0.5-0.5c0,0-0.1-0.3-0.3-0.4
		c-0.1-0.1-0.4-0.1-0.7-0.3c-0.2-0.1-0.5-0.3-0.8-0.3c-0.2-0.4-0.2-0.8-0.3-1.1c0-0.3,0-0.7,0.1-1c-0.2-1.9-0.3-3.8-0.5-5.7
		c-0.2-1.4-0.6-2.7-1.3-4c-0.5-0.8-1.1-1.6-2.1-2.2c-0.5-0.4-1.2-0.6-1.7-0.9c-0.3,0-0.4-0.3-0.6-0.4c0.2-0.2,0.3-0.3,0.4-0.4
		c0.5-0.4,1.2-0.9,1.7-1.3c1-0.8,1.8-1.6,2.4-2.8c0-0.2,0.3-0.4,0.4-0.5c0.7-0.7,2.1-4.4,2-4.9c0.1-0.2,0.3-0.3,0.5-0.3
		c0.8-0.2,1.2,1.1,2.5-0.3c0.1-0.2,0.1-0.5,0-0.7c-0.4-0.3-0.7-0.5-1.2-0.7c-1.4-0.3-2.8-0.3-4.1-0.6c-0.1,0-0.1,0-0.3,0
		c-0.3,0-1,1.4-0.2,1.7c0.3,0,0.7,0,0.8,0.3c-0.1,0.7-0.7,3-1.1,3.7c-0.5,0.7-1.2,1.5-1.9,2.2c-1,1.3-2.1,2.3-3.4,3.2
		c-0.8,0.5-1.7,1-2.5,1.6c-0.1,0.1-0.4,0.3-0.7,0c0-0.1,0-0.2,0-0.3c0-0.6,0.1-1.1,0.1-1.6c0-2.5,0.3-4.9,0.1-7.4v-0.3
		c0-0.7,0.1-1.5,0.5-2.1c0.3-0.3,0.4-0.8,0.6-1.1c0-0.3,0-0.5,0-0.6c-0.3,0-0.5-0.2-0.8-0.3c-0.8-0.1-1.6-0.3-2.5-0.1
		c-0.3,0.1-0.7,0.1-1,0.1s-0.5,0-0.7,0c-0.3,0.1-0.7,0.3-0.6,0.7c0.2,0.6,0.3,0.6,0.7,1.1c0.5,0.6,0.7,1.3,0.5,2.1
		c-0.1,1.2-0.3,2.5-0.3,4.3c0,1.2-0.1,2.4-0.3,3.5c0,0.4,0,0.8,0,1.2c-0.1,3.5-0.2,6.9,0,10.3c0,1.5,0,2.9,0.4,4.4
		c0.1,0.7-0.3,1.1-1,1.3c-0.1,0-0.3,0-0.4,0.1s-0.2,0.2-0.3,0.3C137.3,66.1,137.4,66.2,137.5,66.3z"/>
</g>
<g>
	<path class="st0" d="M82.3,89c-0.1,0-0.2,0-0.3,0.1c0-0.2,0-0.3,0-0.4c0-0.4,0-0.7,0-1.1c0-0.3,0-0.7-0.1-1
		c-0.1-0.4-0.1-0.8-0.2-1.3s-0.1-1-0.3-1.5c0-0.8-0.2-1.6-0.3-2.4c-0.2-1-0.4-2.1-0.6-3.1c-0.2-1.3-0.8-2.4-1.5-3.4
		c-0.2-0.3-0.5-0.6-0.7-0.7c-0.3-0.3-0.7-0.4-1.2-0.3c-0.6,0.1-1.2,0.3-1.6,0.9c-0.6,0.7-1.2,1.5-1.4,2.5c-0.3,1.2-0.6,2.4-0.7,3.7
		c0,0.6,0,1.2,0,1.7c0,1.3,0,2.7,0,4c0,0.5,0,1,0.1,1.4c0.1,0.8,0.2,1.5,0.4,2.2c0,0.1,0,0.3,0,0.4c-0.1,0-0.2,0.1-0.2,0.1
		c-0.2,0.1-0.4,0.2-0.6,0.4c-0.1,0.1-0.1,0.2,0,0.3c0.1,0.1,0.2,0.1,0.3,0.2c0.3,0.1,0.7,0,1,0s0.6-0.1,0.8,0
		c0.3,0.1,0.8-0.2,0.8-0.5c0-0.2-0.1-0.3-0.3-0.4c-0.6-0.1-0.3-0.4-0.3-1.4c0-0.4-0.1-0.8-0.1-1.1s0-0.6,0-1c0-0.6,0-1.1-0.1-1.7
		c0-0.6,0-1.1,0.1-1.7c0-0.3,0-0.7,0.1-1c0.2-0.1,0.3-0.1,0.6-0.2c0.8-0.2,1.6-0.3,2.3-0.6c0,0,0.1,0,0.2,0s0.3,0,0.3,0.2
		c0.1,0.3,0.1,0.6,0.2,0.9c0.1,0.6,0.2,1.1,0.3,1.7c0.1,0.7,0.3,1.5,0.3,2.2c0.2,1,0.2,2,0.7,3c-0.2,0.1-0.3,0.2-0.3,0.3
		c-0.1,0.1-0.1,0.3,0,0.4c0.2,0.1,0.4,0.2,0.7,0.1c0.6-0.3,1.1-0.5,1.7-0.8c0,0,0.1,0,0.2-0.1c0.2,0,0.3-0.3,0.3-0.5
		C82.6,89,82.4,88.9,82.3,89z M78.4,80.7c-0.6,0.2-1,0.3-1.5,0.5s-1,0.3-1.5,0.5c0,0-0.1,0-0.1-0.1c-0.2-0.7-0.2-1.3-0.1-2
		c0-0.3,0-0.7,0-1c0-0.4,0-0.8,0-1.1c0-0.5,0.2-1,0.4-1.4c0.2-0.3,0.4-0.7,0.6-1c0.1-0.2,0.4-0.1,0.5,0c0.5,0.8,1,1.7,1.2,2.7
		c0.2,0.8,0.3,1.6,0.5,2.4C78.4,80.3,78.4,80.5,78.4,80.7z"/>
	<path class="st0" d="M91.8,74.9c-0.1-0.1-0.2-0.2-0.3-0.3c-2.4-2.5-5.4-2.2-7.8-1.8c-0.7,0.1-1.3,0.3-2,0.7c-0.1,0-0.2,0.1-0.3,0.2
		c-0.2,0.2-0.2,0.3-0.2,0.3c0.1,0,0.2,0.1,0.3,0.1c0.3,0,0.7,0,1-0.1c0.1,0,0.3,0,0.3,0.1s0,0.2,0.1,0.3c0,0.5,0,0.9,0.1,1.4
		c0.1,1,0.5,6.4,0.6,7.4c0,0,0,0.1,0,0.2c0.1,1,0.6,4.4,0.6,4.6c0,0.3,0,0.5,0.1,0.7c-0.3,0.3-0.7,0-1,0.2c0,0.1,0,0.2,0.1,0.2
		c0.2,0.1,0.3,0.2,0.5,0.3c0.3,0.1,0.5,0.3,0.8,0.2c0.7,0,1.6-0.1,2.2-0.5c0.4-0.2,0.7-0.4,1.1-0.6c0.2-0.1,0.3-0.2,0.5-0.3
		c0.4-0.3,1.9-1.7,2.1-2c0.3-0.6,0.7-1.1,1-1.6c0.2-0.3,0.3-0.7,0.4-1c0.2-0.6,0.3-1,0.3-1.6c0.1-0.5,0.1-1,0.1-1.6
		c0-0.4,0.1-0.8,0-1.3c-0.1-0.9-0.2-1.7-0.5-2.6C92.4,75.9,92.1,75.4,91.8,74.9z M88.4,86.8c-0.5,0.4-1,0.8-1.5,1.1
		c-0.2,0-0.3,0.1-0.4,0.2c-0.1-0.5-0.2-1-0.3-1.3c0-0.1,0-0.3,0-0.5c-0.1-0.7-0.2-1.4-0.3-2.2c-0.2-1.4-0.3-2.9-0.4-4.4
		c0-0.8-0.1-1.6-0.2-2.4c0-1-0.1-2-0.2-3c0-0.1,0-0.2,0-0.3c0-0.1,0.1-0.1,0.2-0.2c0.2,0,0.3,0,0.5-0.1c0.8,0,1.6,0,2.3,0.3
		c0.2,0.1,0.4,0.2,0.6,0.3c1.8,0.8,2.2,3.1,2.3,4.3C91,80.2,90.7,85.3,88.4,86.8z"/>
	<path class="st0" d="M104.6,71.8c-0.6,0-1.1,0-1.6,0c-0.2,0-0.4,0.3-0.3,0.5c0,0.1,0.1,0.3,0.2,0.3c0.2,0.2,0.3,0.3,0.1,0.5
		c0,0.1,0,0.2,0,0.2c-0.6,1.5-0.9,3-1.3,4.5c-0.2,0.7-0.3,1.3-0.4,1.9c-0.4,1.5-0.9,3.1-1.3,4.6c0,0.1,0,0.3-0.2,0.3
		c-0.1,0-0.2-0.1-0.2-0.2c-0.3-0.9-0.5-1.9-0.7-2.8c0-0.2-0.1-0.3-0.1-0.5c-0.3-1-0.6-2-0.8-3c-0.2-0.9-0.4-1.8-0.7-2.7
		C97.2,75,97,74.7,97,74.3c-0.1-0.6-0.3-1-0.6-1.4c-0.5-0.3-0.9-0.2-1.4-0.1c-0.1,0-0.3,0.1-0.4,0c-0.4,0-0.7,0.1-1,0.3
		c-0.3,0.2-0.3,0.5,0,0.7c0.1,0.1,0.3,0.1,0.4,0.1c0.2,0,0.3,0,0.5,0c0.3,0.6,0.5,1.1,0.7,1.7c0.3,0.9,0.6,1.9,0.8,2.8
		c0.1,0.8,0.4,1.4,0.7,2.2c0.1,0.4,0.3,0.8,0.4,1.2c0.2,0.8,0.5,1.6,0.7,2.4c0.3,1,0.6,2,1,2.8c0.1,0.3,0.3,0.5,0.6,0.7
		c0.3,0.2,0.5,0.3,0.8,0.3c0.1,0,0.1-0.1,0.2-0.2s0.1-0.1,0.1-0.3c0.1-0.3,0.2-0.7,0.3-1c0-0.3,0.1-0.5,0.1-0.7
		c0.2-0.5,0.3-0.9,0.4-1.4c0.2-0.6,0.3-1.2,0.5-1.9c0.1-0.6,0.9-3.3,1.1-3.9c0.2-0.7,0.3-1.5,0.6-2.2c0.3-0.7,0.9-3.4,1-3.8
		c0-0.1,0-0.1,0.1-0.1c0.2,0,0.4,0,0.6,0s0.3-0.1,0.5-0.2c0.1,0,0.1-0.3,0-0.3C105.2,72,104.9,71.9,104.6,71.8z"/>
	<path class="st0" d="M114.9,71.5c-0.3,0-0.5-0.1-0.7-0.1s-0.3,0-0.6,0c-1.2,0-2.3,0-3.5,0c-0.4,0-0.9,0-1.3,0.1
		c-0.2,0-0.4,0.1-0.7,0.1c-0.4,0.1-0.7,0.2-1.1,0.3c-0.1,0.1-0.3,0.2-0.3,0.3c0,0.3,0,0.6,0.2,0.8c0.1,0.2,0.2,0.2,0.3,0.2
		c0.1,0,0.3,0,0.3-0.2c0-0.1,0-0.2,0.1-0.3c0-0.1,0.2-0.1,0.3-0.1c0,0,0.1,0.1,0.1,0.2c0,0.2,0,0.5,0,0.7c0.1,0.5,0,1,0,1.6
		c0,1.2,0,2.4,0,3.7c0,0.7,0,1.4,0,2.1c0,1.9,0,3.7,0.1,5.5c0,0.2,0,0.3,0,0.5c0,0.1,0.2,0.3,0.1,0.5c-0.2,0.1-0.3,0.1-0.5,0
		c-0.2,0-0.4,0-0.6,0c0,0-0.1,0-0.1,0.1s0,0.3,0.1,0.3s0.2,0.1,0.3,0.1c0.6,0.2,1.2,0.3,1.8,0.3c0.7,0,1.3-0.1,2-0.2
		c0.3,0,0.7,0,1.1-0.1c0.2,0,0.4,0,0.6,0c0.6,0,1.3,0,1.9,0c0.1,0,0.3,0,0.3-0.2c0.2-0.2,0.3-0.4,0.3-0.7c0-0.3,0-0.6,0-0.9
		s0-0.4-0.3-0.5c-0.1,0-0.2-0.1-0.3-0.1c-0.1-0.1-0.3,0-0.3,0.1c0,0.2-0.1,0.4-0.2,0.6c0,0.2-0.2,0.3-0.3,0.3
		c-0.2,0-0.3,0.1-0.5,0.1c-0.3,0-0.6,0.1-1,0.1c-0.5,0-1,0-1.5,0.1c-0.3,0-0.5,0-0.7,0c-0.2-0.6-0.3-1.1-0.3-1.7c0-0.3,0-0.7,0-1.1
		c-0.1-1.2,0-2.5,0.1-3.7c0-0.1,0-0.3,0.2-0.4c0.3,0,0.5,0,0.8,0.1c0.3,0,0.6,0,0.9,0c0,0.1,0.1,0.1,0.1,0.2c0.1,0.5,0.4,0.7,0.8,1
		c0.2,0.2,0.4,0,0.4-0.3c0-0.1,0-0.3,0-0.3c0-0.4,0-0.7-0.1-1.1c0-0.2-0.1-0.3-0.2-0.6c-0.1-0.2-0.2-0.3-0.5-0.4s-0.4,0-0.5,0.4V79
		c0,0.1-0.1,0.2-0.2,0.3c-0.4,0.1-0.9,0.2-1.3,0.1c-0.2,0-0.3-0.1-0.3-0.3c0-0.1,0-0.1,0-0.2c0-1,0-2,0.1-3c0-1.2,0-2.3-0.3-3.6l0,0
		c0.1-0.1,0.3-0.1,0.5,0c1,0,2,0,3,0l0,0c0.1,0.2,0.1,0.3,0,0.5c-0.1,0.4,0,0.8,0.3,1.1c0.1,0,0.1,0.2,0.2,0.3
		c0.3,0.4,0.7,0.4,0.8,0c0,0,0-0.1,0-0.2c0-0.5,0.1-1,0.2-1.5c0-0.1,0-0.2,0-0.3C115.3,71.7,115.2,71.5,114.9,71.5z"/>
	<path class="st0" d="M129.1,71.3c-0.4-0.1-0.9-0.1-1.3,0c-0.1,0-0.2,0-0.4,0c-0.5,0-1,0.1-1.5,0.2c-0.2,0-0.3,0.1-0.4,0.2
		s-0.1,0.3,0.1,0.3c0.1,0,0.2,0,0.3,0c0.2,0,0.2,0.1,0.3,0.3c0,0,0,0,0,0.1c-0.3,4.7-0.3,5.3-0.3,5.8c0,0.3,0,0.5,0,0.7
		c0,0.3,0,0.5,0,0.7c0,1.1,0,2.2-0.1,3.3c0,0.1,0,0.1,0,0.3c-0.1-0.1-0.1-0.2-0.2-0.3c-0.2-0.4-0.4-0.9-0.6-1.3
		c-0.1-0.3-0.2-0.7-0.3-1c-0.1-0.3-0.3-0.7-0.4-1c-0.2-0.4-1.2-2.7-1.5-3.3c-0.6-0.9-1-1.8-1.4-2.7c-0.3-0.7-0.7-1.3-1-2
		c-0.4-0.8-0.8-0.3-1.4-0.4c-0.4,0-0.8,0-1.2,0.1c-0.4,0-0.5,0.3-0.6,0.4c-0.2,0.3,0,0.7,0.5,0.7c0.1,0,0.2,0,0.3,0
		c0.2,0,0.3,0.1,0.3,0.3c0,0.4,0,0.9,0,1.3c0,1.3,0,2.6-0.1,3.9c-0.1,1-0.2,2,0,2.9v0.1c0,0.8,0,1.6,0,2.4c0,0.7,0,1.5,0,2.2
		c0,0.4,0,0.7,0,1c-0.2,0.2-0.4,0.3-0.5,0.4c-0.2,0.2-0.6,0.3-0.7,0.3c0,0.1,0,0.3,0.1,0.3c0.1,0.1,0.2,0.1,0.3,0.1
		c0.1,0,0.3-0.1,0.5-0.1c0.3-0.1,0.7-0.1,1,0c0.5,0.1,0.9-0.1,0.9-0.7c0-0.5,0.1-0.9,0-1.3c0-0.1,0-0.2,0-0.3c0-0.5,0.1-1,0.1-1.5
		c0-1,0.1-2,0.1-3.1c0-1,0.1-2,0-3.1c0-0.9,0.1-1.8,0.1-2.6c0,0,0-0.1,0.1-0.1c0.1,0.3,0.3,0.5,0.4,0.8c0.3,0.7,0.7,1.3,1,2
		c0.2,0.4,0.4,0.9,0.7,1.3c0.4,0.8,0.8,1.6,1.1,2.5c0.5,1.4,1.1,2.9,1.6,4.3c0.3,0.4,0.6,0.8,0.9,1.2c0.1,0.2,0.3,0.3,0.7,0.3
		c0.3,0,0.4,0,0.5-0.3c0.1-0.2,0.3-2.3,0.4-3.4c0-0.5-0.1-1.1,0.4-5.8c0-0.6,0.1-1.2,0.1-1.8c0-0.5,0-0.9,0-1.4c0-0.2,0-0.3,0-0.6
		c-0.1-0.7,0.1-1.5-0.1-2.2c0.1,0,0.1,0,0.6,0c0.4,0,0.7-0.2,0.9-0.3c0.1,0,0.2-0.2,0.2-0.3C129.2,71.4,129.1,71.3,129.1,71.3z"/>
	<path class="st0" d="M138.5,71.6c-0.1,0-0.2,0-0.2-0.1c-0.2,0-0.3-0.1-0.5-0.1c-0.1,0-0.3,0-0.5,0c-0.7,0-1.5,0-2.3,0
		c0,0-0.1,0-0.2,0c-0.5,0-1,0-1.4,0c-0.3,0-0.5,0-0.7,0.1c-0.6,0.1-1.2,0.2-1.7,0.2c-0.3,0-0.5,0.1-0.7,0.1c-0.1,0-0.3,0.2-0.3,0.4
		c0,0.3,0,0.7,0,1c0,0.1,0.1,0.2,0.2,0.2c0.3,0,0.5,0,0.5-0.3c0-0.2,0.1-0.5,0.2-0.7c0.3-0.1,0.7-0.1,1.1-0.1c0.3,0,0.7,0,1,0
		c0,0.1,0,0.2,0,0.3c0,0.6-0.2,1.1-0.1,1.7c0,0.6-0.1,1.1,0,1.7c0,0,0,0.1,0,0.2c0,0.3,0,0.7,0,1c0,0.2,0,0.3,0,0.6
		c0,0.6-0.1,1.2-0.1,1.8c0,0.5-0.2,1-0.2,1.5c-0.1,0.4-0.1,0.9-0.1,1.3c0,0.5,0,1,0,1.5c0,0.3,0,0.7,0,1c0,0.4,0,0.8,0,1.2
		c0.1,0.2,0,0.4,0,0.6c0,0.1-0.1,0.2-0.3,0.3c-0.1,0-0.2,0.1-0.3,0.1s-0.3,0-0.3,0c-0.2,0-0.2,0.2-0.1,0.3c0.1,0.2,0.3,0.3,0.5,0.3
		c0.4,0.1,0.7,0.1,1.1,0.1s0.7,0,1.1,0.1s0.7,0,0.8-0.3c0.1-0.1,0.1-0.2,0.1-0.3c0-0.1-0.1-0.2-0.3-0.2s-0.3,0-0.4,0
		s-0.2-0.1-0.3-0.2c0.1-0.6,0.2-1.1,0.1-1.6c0,0,0-0.1,0-0.2c0-0.3,0-0.6,0-0.9s0-0.6,0-0.8c0.1-0.6,0.1-1,0.2-1.6
		c0-0.5,0.1-1,0.2-1.5c0-0.5,0.1-0.9,0.1-1.4c0-0.1,0-0.2,0-0.3c0-0.3,0-0.5,0.1-0.7c0-0.6,0.1-1.1,0.2-1.6c0.1-1,0.2-1.9,0.2-2.9
		c0-0.3,0-0.7-0.2-1v-0.1l0.1-0.1c0.7,0,1.4-0.1,2-0.1c0.1,0,0.2,0,0.3,0c0.1,0.5,0.2,0.5,0.6,0.9c0,0,0,0.1,0.1,0.1
		c0.2,0.1,0.3,0.1,0.5,0c0.1-0.1,0.2-0.3,0.2-0.4c0-0.2,0-0.5,0.1-0.8C138.9,71.8,138.8,71.7,138.5,71.6z"/>
	<path class="st0" d="M150.6,72c-0.5-0.1-2.6,0.1-2.8,0.1l-0.2,0.1c0,0,0,0.2,0.1,0.2c0.1,0.1,0.3,0.2,0.4,0.3
		c0.2,0.1,0.4,0,0.4,0.3c-0.2,1.3-0.2,2.4-0.3,3.3c0,0.2,0,0.3,0,0.5c0,1.4-0.2,2.9-0.6,4.3c-0.3,1.1-1,3.6-1.7,4.6
		c-1.2,1.5-3.1,2.1-3.6,0.3c-0.2-0.8-0.3-1.7-0.3-2.7c0-0.7,0-1.3,0-1.9c0-0.7,0-1.3,0.1-1.9c0.1-0.9,0.1-1.7,0.1-2.5s0-1.6,0-2.4
		c0-0.6,0.2-1,0.5-1.4c0-0.1,0.1-0.1,0.2-0.2c0.3-0.3,0.3-0.6-0.3-0.8c0,0-0.1,0-0.2,0c-0.2,0-1.8-0.1-2.2-0.1
		c-0.1,0-0.2,0.1-0.2,0.1c-0.1,0-0.2,0.2-0.1,0.3c0.1,0.2,0.2,0.4,0.5,0.5c0.4,0.1,0.4,0.4,0.4,0.8s-0.1,0.9-0.1,1.3
		c-0.1,1-0.2,2.1-0.3,3.2c0,0.4-0.1,0.9-0.1,1.3c-0.1,0.9-0.1,1.7-0.2,2.5c0,1.4,0.2,2.8,0.8,4.1c0.3,0.7,0.6,1.3,1.1,1.9
		c2.4,2.6,5.7-1.6,6.2-2.7c0.5-0.9,1-1.9,1.2-2.9c0.1-0.4,0.3-0.8,0.3-1.2c0.1-0.3,0.1-0.5,0.1-0.7c0.1-0.7,0.9-6.2,0.9-6.9
		c0-0.3,0.1-0.6,0.3-0.6s0.2-0.2,0.3-0.3C152,72.2,151.3,72.1,150.6,72z"/>
	<path class="st0" d="M161.4,89.4c-0.1,0-0.2,0-0.3,0.1c-0.2,0.1-0.3,0.1-0.5,0.1c-0.1,0-0.2-0.1-0.3-0.3c-0.1-0.3-0.2-0.6-0.2-0.9
		c0-0.6,0-1.2,0.1-1.8c0-0.2,0.1-0.3,0.1-0.4c0.1-0.6,0.1-2,0-2.5c-0.1-0.6-0.3-1.2-0.4-1.8c-0.2-0.4-0.3-0.7-0.4-0.9
		c-0.3-0.5-0.7-1-1-1.4c-0.1-0.1-0.1-0.2-0.2-0.3c1.8-0.3,2.6-1.5,2.9-1.9c0.5-0.6,0.7-1.2,0.5-2c0-0.1,0-0.2,0-0.3
		c-0.3-1-1.1-1.8-2.2-2.1c-0.9-0.2-1.8-0.3-2.6-0.4c-1.1,0-2.1,0.1-3.1,0.5c-0.3,0.1-0.6,0.3-0.9,0.4c-0.1,0-0.1,0.1-0.1,0.2
		s0.1,0.2,0.2,0.2c0.2,0,0.4,0,0.5,0c0.4,0,0.8,0,1.2-0.1c0.1,0,0,0.2,0,0.3c0,0.5-0.2,1-0.3,1.4c0,0.6-0.5,3-0.6,3.4
		c-0.1,0.6-0.2,1.1-0.3,1.6c-0.2,1-1.2,6.3-1.3,7.2c0,0.2,0,0.3,0,0.5c-0.3,0.1-0.5,0.1-0.7,0.1s-0.2,0.1-0.2,0.3
		c0.2,0.3,0.4,0.5,0.8,0.6c0.7,0,1.4,0.2,2.1,0.3c0.1,0,0.3,0,0.3,0l0.1-0.2c0-0.1,0-0.2-0.1-0.2c0,0,0-0.1-0.1-0.1
		c-0.3-0.1-0.4-0.3-0.3-0.6c0.1-0.5,0.1-1,0.1-1.5c0-0.9,0.7-4.2,0.7-4.5c0-0.1,0-0.2,0-0.3c0.1-0.5,0.2-1,0.3-1.5
		c0-0.3,0-0.6,0.2-0.8c0.7-0.1,0.5,0.1,1.3,0c0.1,0,0.3,0,0.5,0.1c0.5,0.7,0.8,1.7,0.9,2.5c0,0.3,0.1,0.7,0.1,1
		c0,0.7-0.1,1.8-0.1,2.7c-0.2,1.2,0.1,2.8,0.6,3.5c0.1,0.3,1,1.5,2.5,1.1c0.3-0.1,0.4-0.4,0.3-0.7C161.6,89.8,161.5,89.6,161.4,89.4
		z M155.9,78.6c0-0.3,0-0.5,0-0.7s0.1-0.4,0.1-0.6c0-0.3,0.1-0.7,0.2-1c0-0.6,0.2-2.4,0.1-2.7c0.1-0.1,0.1-0.1,0.3-0.2
		c0.8-0.1,1.7,0.1,2.5,0.3c0.1,0,0.3,0.1,0.3,0.2c0.3,0.4,0.6,0.8,0.5,1.3c0,0.5,0,1-0.2,1.4c-0.2,0.5-0.7,1-1.2,1.3
		C157.3,78.7,156.9,78.6,155.9,78.6z"/>
	<path class="st0" d="M171.9,77.5c0.1,0.1,0.1,0.2,0.2,0.3c0.3,0.4,0.6,0.5,0.8,0.2c0,0,0-0.1,0.1-0.2c0.1-0.4,0.3-0.9,0.4-1.4
		c0-0.1,0-0.2,0.1-0.3c0-0.3-0.1-0.5-0.3-0.7c-0.3-0.1-0.5-0.2-0.7-0.3c-0.2,0-0.3-0.1-0.5-0.1c-1.2-0.2-2.3-0.4-3.5-0.6
		c-0.4-0.1-0.9-0.1-1.3-0.1c-0.2,0-0.4,0-0.7,0c-0.4,0-0.7,0-1.1,0c-0.2,0-0.3,0.2-0.3,0.3c0,0.3-0.1,0.6,0,0.8
		c0,0.2,0.1,0.2,0.3,0.2c0.1,0,0.3,0,0.3-0.2c0-0.1,0.1-0.2,0.2-0.3c0-0.1,0.2-0.1,0.3,0c0,0,0.1,0.1,0.1,0.2c0,0.2-0.1,0.5-0.2,0.7
		c0,0.5-0.2,1-0.3,1.6c-0.3,1.2-0.5,2.4-0.7,3.6c-0.1,0.7-0.2,1.4-0.3,2.1c-0.4,1.8-0.7,3.7-0.8,5.5c0,0.2,0,0.3,0,0.5
		c0,0.1,0.1,0.3,0,0.5c-0.2,0-0.3,0-0.5,0s-0.4,0-0.6-0.1c0,0-0.1,0-0.1,0.1s0,0.3,0,0.3c0.1,0.1,0.2,0.1,0.3,0.2
		c0.6,0.3,1.2,0.5,1.8,0.6s1.3,0.1,2,0.2c0.3,0,0.7,0.1,1.1,0.1c0.2,0,0.4,0,0.6,0.1c0.6,0.2,1.2,0.3,1.8,0.3c0.1,0,0.3,0,0.3-0.1
		c0.2-0.1,0.3-0.4,0.4-0.6c0.1-0.3,0.1-0.6,0.2-0.9c0.1-0.3,0-0.4-0.2-0.6c-0.1,0-0.2-0.1-0.2-0.1c-0.1-0.1-0.3-0.1-0.4,0.1
		s-0.2,0.4-0.3,0.6s-0.2,0.3-0.4,0.3s-0.3,0-0.5,0c-0.3,0-0.7,0-1,0c-0.5-0.1-1-0.1-1.5-0.2c-0.3,0-0.5-0.1-0.7-0.2
		c0-0.6-0.1-1.1,0-1.7c0-0.3,0.2-0.7,0.2-1c0.1-1.2,0.5-2.4,0.7-3.6c0-0.1,0.1-0.3,0.3-0.3c0.3,0,0.5,0.2,0.8,0.2
		c0.3,0.1,0.6,0.1,0.8,0.2c0,0.1,0.1,0.1,0,0.2c0,0.5,0.3,0.8,0.6,1.1c0.2,0.2,0.4,0.1,0.5-0.2c0-0.1,0-0.3,0-0.3
		c0-0.4,0.1-0.7,0.1-1.1c0-0.2,0-0.4-0.1-0.6c0-0.2-0.2-0.3-0.4-0.4c-0.3-0.1-0.4,0-0.6,0.3v0.1c-0.1,0.1-0.1,0.2-0.2,0.2
		c-0.5,0-0.9,0-1.3-0.1c-0.2,0-0.2-0.1-0.2-0.4c0-0.1,0-0.1,0-0.2c0.2-1,0.4-2,0.6-2.9c0.2-1.2,0.4-2.3,0.3-3.6l0,0
		c0.1-0.1,0.3,0,0.5,0c1,0.2,2,0.3,3,0.5l0,0c0,0.2,0,0.3-0.1,0.5C171.6,76.7,171.6,77.1,171.9,77.5z"/>
</g>
<g>
	<path class="st1" d="M173.2,134.6c0,0.3,0.1,0.6,0.1,0.9h0.1l0,0c0.2,0,0.4,0,0.6,0c0.2,0,0.3-0.1,0.5-0.1c0-0.3,0-0.5-0.1-0.8
		c0-0.3-0.1-0.6-0.2-0.9l0,0c0,0-0.1,0-0.2,0c-0.3,0-0.5,0-0.7,0l0,0C173.2,133.9,173.2,134.3,173.2,134.6z"/>
	<path class="st1" d="M69.1,132.6c0.4,0,0.9-0.3,1.2-0.6c0.7-0.6,1-1.3,1.2-2.1c0.1-0.7,0.3-1.9-0.4-2.8c-0.3-0.4-0.9-1-1.5-1
		c-0.1,0-0.2,0-0.3,0c-0.6,0.6-0.7,1.9-0.7,2.7l0,0c0,0.1,0,0.3,0,0.5c-0.1,0.9-0.2,2.4,0.2,3C68.8,132.5,68.9,132.6,69.1,132.6z"/>
	<path class="st1" d="M96.2,117c0.3,0,0.7,0,0.9,0c0.1,0,0.2,0,0.3,0c0.2,0,0.3,0,0.5,0c0.5,0,0.9,0,1.4,0s0.8,0,0.9,0
		c0-0.1,0-0.3,0-0.4v-0.1c-0.2-0.1-1.2-0.1-1.9-0.1h-0.6c-0.3,0-0.6,0-1,0c-0.2,0-0.3,0-0.4,0h-0.2c-0.1,0-0.2,0-0.3,0h-0.1
		c-0.1,0-0.2,0-0.3,0l0,0c0,0.2,0,0.5,0,0.7C95.5,116.9,95.8,117,96.2,117z"/>
	<path class="st1" d="M170,139c-1.7,0-4.9-0.1-4.9-0.1v1.5c0.8,0.1,2.1,0,2.9,0c1.8,0,5.8,0,6,0c1-0.1,0.8-1.5-0.1-1.5
		c-0.4,0-1.1,0-1.5,0C171.8,139,170.9,139,170,139z"/>
	<path class="st1" d="M136.3,138.4c-4.4,0-8.9,0-13.3,0.1c-1.4,0-2.8,0-4.2,0c-0.3,0-0.7,0-1.1,0c-1.2,0-2.3,0-3.5,0
		c-1.1,0-2.1,0-3,0c-0.5,0-0.9,0-1.3,0h-0.7c-0.7,0-1.3,0-1.9,0.1c-1.3,0-2.5,0.1-3.8,0c0,0-3.4-0.1-3.8-0.1c0,0.3,0,1.1,0,1.3
		c3.8,0.6,7.8,0.2,11.6,0.2c3.7,0,7.4,0,11.1,0c3,0,21.5,0,21.8-0.1c0-0.2,0-1.2,0-1.4C141.6,138.4,139,138.3,136.3,138.4z"/>
	<path class="st1" d="M68.6,139.3c0.2,0,0.4,0,0.7,0s0.4,0,0.7,0c1,0.1,2,0.1,3,0.1s2,0,3,0c0.5,0,1.6,0,2.1,0c0,0,0-1,0.1-1.4l0,0
		c-1.1,0-2.9-0.1-4.6-0.1c-0.8,0-1.6,0-2.2,0c-0.9,0-1.8-0.1-2.7,0C67.5,137.9,67.9,139.3,68.6,139.3z"/>
	<path class="st1" d="M72.7,129.2c-0.1,1.4-0.6,2.7-1.4,3.4s-1.5,1.2-2.2,1.2c0,1.2-0.1,2.3-0.1,3.3c1.4,0,6.1,0.1,8.7,0.2
		c0.9-3.5,2-5.1,4.7-7.1c1.8-1.3,4.3-2,6.8-2c0.3,0,0.7,0,1,0c5.3,0.4,9,4,9.9,9.6c0.8,0,2.9,0.1,3.4,0.1c1.9,0,3.8,0,5.7-0.1h0.7
		c1.3,0,2.7-0.1,4.4-0.1c1.2,0,2.3,0,3.5,0c1.7,0,3.5,0,5.3,0c3.2,0,6.5,0,9.7-0.1c1.3,0,2.7,0,4.1,0c0.7,0,1.5,0,2.2,0
		c1.1,0,2.1,0,3.2,0c0.7,0,1.3,0,2,0c0.8-5.2,5.1-8.9,10.5-8.9c0.3,0,0.6,0,0.8,0c2.9,0.2,5.4,1.5,7.2,3.6c1.5,1.8,2.2,3.3,2.7,5.7
		c0.5,0,1,0,1.5,0c0.8,0,1.6,0.1,2.4,0c0.7,0,1.3,0,2-0.1c0.7,0,1.3-0.1,2-0.1c0-0.3,0-0.7-0.1-1.3V136c-0.1,0-0.2-0.1-0.3-0.2
		c0,0,0,0-0.1-0.1c-0.3-0.3-0.3-0.8-0.4-1.2v-0.1c0-0.5-0.1-1.1,0.1-1.6c0.1-0.2,0.3-0.3,0.4-0.3l0,0c-0.2-3.2-0.4-7.1-0.6-9.5
		c-0.1-1.4-0.2-2.9-0.3-4.4c-0.1-2-0.3-4.1-0.5-6.1c-1.1,0.2-3.7,0.2-7.8,0.2c-5.4,0-12.4-0.1-18.7-0.3c-5-0.1-9.4-0.2-12.1-0.2
		c-0.5,0-1,0-1.3,0c-2.8,0-5.7,0.1-8.4,0.1c-3.7,0-7.4,0.1-11.1,0.2c-0.4,0-1,0-1.6,0c-4.9,0-14.9-0.3-23.7-0.6
		c-6-0.2-11.2-0.3-13.8-0.4c-1.3,4.4-2.3,8.7-3,13c0.7,0.2,1.1,0.6,1.3,0.8C72.3,126.7,72.8,127.9,72.7,129.2z M102.9,114.1
		c0-0.3,0.2-0.4,0.5-0.4c0.2,0,0.4,0.2,0.4,0.4c0.3,2.7,0.3,5.6,0.3,8.3c0,1.1,0,2.3,0,3.4s0,2.3,0,3.4c0,2.4,0,4.9,0.3,7.4
		c0,0.2,0,0.3-0.1,0.4c-0.1,0.1-0.3,0.2-0.4,0.2c-0.3,0-0.5-0.2-0.5-0.4c-0.4-2.6-0.4-5.3-0.3-7.9c0-1,0-2.1,0-3.1
		c0-1.3,0-2.7-0.1-4C102.9,119.2,102.8,116.6,102.9,114.1z M94.7,115.2c0.2-0.1,0.4-0.2,0.7-0.2c0.2,0,0.4,0,0.6,0
		c0.1,0,0.2,0,0.3,0h0.1h0.1c0.5,0,1,0,1.5,0c1.1,0,2,0,2.8,0.2c0.3,0,0.4,0.3,0.5,0.5c0.1,0.8,0.2,1.6-0.3,2
		c-0.3,0.3-0.6,0.4-1.1,0.4h-0.2c-0.4,0-0.8,0-1.2,0c-0.4,0-0.8,0-1.2,0c-0.2,0-0.3,0-0.6,0c-0.3,0-0.6,0-0.8,0
		c-0.5,0-0.9-0.1-1.2-0.3c-0.5-0.3-0.6-1.1-0.6-1.4C94.2,116.3,94.2,115.6,94.7,115.2z"/>
	<path class="st1" d="M93.8,111.3c8.2,0.2,16.6,0.4,21,0.4c0.7,0,1.3,0,1.7,0c3-0.1,6.1-0.1,9.1-0.1c3.4,0,7-0.1,10.5-0.2
		c0.7,0,1.5,0,2.5,0c3,0,7.2,0.1,11.7,0.1c5.2,0.1,10.5,0.2,14.8,0.2c3,0,5.2,0,6.5-0.1c0-0.1,0-0.1,0-0.2c0-0.3,0-0.5,0-0.7
		c-0.4-4-0.7-7.7-2.7-11.2c-2.1-3.7-9.1-5.4-9.4-5.4c-11-2.7-30.6-3.2-45-3.2c-26.5,0-33.4,4.8-35.1,6.9c-2.7,3.2-4.2,7.9-5.3,11.3
		c-0.2,0.6-0.4,1.2-0.6,2c0.1,0,0.1,0,0.2,0C77.6,110.9,85.8,111.1,93.8,111.3z M130.7,97.3c0.7-0.7,1.7-0.7,2.4-0.8
		c2.6,0,6.3-0.1,10.1-0.1c3.3,0,6.2,0,8.2,0c2.1,0,2.9,1.7,3,3.2v0.6c0.1,2.1,0.3,4.5,0.3,6.4c0,2.3-1.1,3.6-3.3,3.7
		c-1.1,0-2.4,0-3.8,0c-1.4,0-2.9,0-4.3,0c-0.9,0-1.8,0-2.7,0c-0.6,0-1.2,0-1.8,0c-0.9,0-1.7,0-2.6,0c-1,0-1.7,0-2.5,0h-0.1h-0.2
		c0,0-0.1,0-0.2,0c-0.1,0-0.1,0-0.2,0c-0.6,0-2.7-0.3-2.8-3.4c0-0.5,0-1.1,0-1.6c0-0.6,0-1.1,0-1.7c0-0.4,0-0.8,0-1.3
		c0-0.8-0.1-1.6-0.1-2.4C129.9,98.7,130.2,97.9,130.7,97.3z M105,97.3c0.6-0.6,1.3-0.7,1.4-0.7h0.1c0.3,0,1.4,0,2.9,0
		c3.8,0,10.1-0.1,14.8-0.1c1,0,1.9,0,2.7,0c0.9,0,2.5,0.7,2.6,3c0.1,1.8,0,4.1,0,6.1c0,0.8,0,1.5,0,2.1v0.1c0,0.6,0,2.3-2.2,2.3
		c-3.4,0.1-6.9,0.1-10.3,0.1h-0.7c-0.7,0-1.5,0-2.3,0c-1.4,0-2.8,0-4.3,0c-0.9,0-1.9,0-2.6,0c-1.3,0-2.9-0.6-2.9-3.4
		c0-2.5,0-5.6,0-6.9C104.1,98.8,104.4,97.9,105,97.3z M76.4,106.3c1.6-6,4.5-8.8,5.4-9.6c0.2-0.2,0.6-0.5,1.3-0.6c0.5,0,1.2,0,1.8,0
		c0.3,0,0.5,0,0.7,0c0.8,0,4,0,7.4,0.1c2.1,0,4.2,0.1,6,0.1c3,0,3.4,1.7,3.4,3.3c0,0.8,0,1.7,0,2.3c0,0.3,0,0.6,0,0.7
		c0,0.4,0,0.8,0,1.2c0,0.7,0,1.5,0,2.2c0,3.4-1.3,3.7-4.1,3.7c-2.9,0-5.8-0.1-8.7-0.2c-0.8,0-1.5,0-2.3-0.1c-0.6,0-1.3,0-2.5,0
		c-0.7,0-1.4,0-2.1,0c-1.3,0-2.6,0-3.7,0c-1,0-1.9-0.4-2.3-1C76.4,108,76.1,107.3,76.4,106.3z"/>
	<path class="st1" d="M78.9,108.2h0.2c0.7,0,1.2,0,1.7-0.1c0.3,0,0.6,0,0.8,0h0.2c1.3,0,5.7,0,6.7,0.1c1.6,0.1,8.5,0.3,9.7,0.3l0,0
		c2.7,0,2.9-0.6,3-2.5c0-0.7,0-1.5,0-2.2c0-0.3,0-0.7,0-1.1s0-0.9,0-1.3c0-0.6,0-1.2,0-1.8c0-1.4-0.8-2-2.3-2.1c-1,0-5.1-0.2-6-0.2
		c-0.6,0-1.3,0-1.7,0h-0.3c-0.5,0-1,0-1.5,0h-0.1c-0.7,0-1.3,0-1.9,0H87c-0.2,0-0.4,0-0.6,0h-0.1c-0.1,0-0.3,0-1,0c-0.8,0-2,0-2.3,0
		s-0.5,0.1-0.6,0.3c-1.5,1.3-3.1,4.1-3.5,5c-0.1,0.3-0.3,0.7-0.4,0.9c-0.4,1-0.8,1.7-1.1,3.1c-0.1,0.4,0,0.8,0.2,1.1
		C78,108.1,78.5,108.2,78.9,108.2z"/>
	<path class="st1" d="M131.2,103.4c0,0.8,0,1.7,0.1,2.4v1c0.1,2.1,1,2.2,1.8,2.2c0.3,0,0.6,0,0.9,0c0.3,0,0.5,0,0.7,0
		c0,0,0.1,0,0.2,0h1.2c0.5,0,0.7,0,0.7,0l0,0l0,0c0.6,0,1.1,0,1.7,0c0.8,0,1.6,0,2.4,0h0.3h0.9l0,0c0.3,0,0.7,0,1,0h1.3
		c2.5,0,5.8,0.1,6.9,0.1c1.5,0,2.3-1.3,2.3-2.6c0-2-0.1-4.7-0.3-6.7c-0.2-1.3-1-2.3-1.7-2.3s-5,0-8.7,0h-2.5c-1.2,0-2.1,0-2.8,0
		c0,0-3.4,0-4.6,0c-0.7,0-1.1,0.1-1.5,0.4c-0.3,0.3-0.5,1-0.5,1.9c0,0.8,0,1.7,0.1,2.4C131.2,102.7,131.2,103.1,131.2,103.4z"/>
	<path class="st1" d="M105.2,102.7c0,1.3,0,2.7,0.1,4.2c0.1,1.8,0.7,1.9,1.4,2.1l0,0c0.3,0,2.3,0.1,2.9,0.1c0.2,0,1.3,0,2.4,0
		c1.4,0,3.1,0,3.8,0h0.1c0.2,0,0.4,0,0.6,0h1c0.8,0,1.6,0,2.3,0c0.9,0,1.2,0,1.3,0l0,0h0.1c1.7,0,3.7,0,5.7-0.1c1,0,1.2-0.8,1.2-1.2
		c0-0.8,0-1.8,0-2.9c0-1.7,0.1-3.6,0-5c0-2-1.3-2.1-1.6-2.1h-0.2c-0.1,0-0.2,0-0.2,0h-0.3c-1.2,0-5,0-8.1,0c-0.6,0-1.2,0-1.7,0h-3.3
		l0,0h-0.2h-0.1c-0.4,0-1.7,0-3,0c-1,0-1.8,0-2.3,0H107c-0.8,0-1.3,0.1-1.7,0.5c-0.4,0.4-0.6,1.3-0.6,3
		C105.2,101.6,105.2,102.1,105.2,102.7z"/>
	<path class="st1" d="M177.1,150.2c-6.6-0.5-13.1-1-19.8-1.3c1.3-0.3,2.6-0.9,3.7-1.8c2.1-1.8,3-4.6,3-7.3c0-0.3,0-0.7,0-1
		c0,0,0,0,0-0.1c-0.3-2.4-1.3-4.7-3-6.4c-2-2-5.8-3.3-8.6-2.1c-3.2,0.7-5.5,3.5-6.4,6.7c-1.2,4.2,0.5,9.8,4.8,11.5
		c-5-0.3-10-0.5-15.1-0.6c-6-0.1-12,0.1-18,0.1c-8.4,0.1-16.8,0.1-25.1,0.1c1.4-0.5,2.7-1.3,3.7-2.5c2.7-3.1,3-8.1,0.8-11.6
		c-2.5-3.9-7.9-5.7-11.8-3.6c-3.5,1.9-4.7,3.7-5.4,6.7c-1.1,4.4,0.9,8.7,4.8,10.6c0.3,0.1,0.5,0.2,0.7,0.3c-1,0-2,0-3,0
		c-5.1-0.1-10.3,0.2-15.4,0.5c-0.9,0-1,1.5,0,1.4c5-0.3,10-0.6,15-0.5c4.6,0,9.3,0.1,13.9,0.1c7.1,0,14.2,0,21.4,0
		c6,0,12.1-0.3,18.1-0.1c11.6,0.2,23.1,1,34.6,1.8c2.4,0.2,4.8,0.3,7.2,0.5C178.1,151.7,178.1,150.3,177.1,150.2z"/>
</g>
</svg>
